<?xml version="1.0" encoding="utf-8"?>
<!-- Generator: Adobe Illustrator 23.0.1, SVG Export Plug-In . SVG Version: 6.00 Build 0)  -->
<svg version="1.1" id="Layer_1" xmlns="http://www.w3.org/2000/svg" xmlns:xlink="http://www.w3.org/1999/xlink" x="0px" y="0px"
	 viewBox="0 0 200 200" style="enable-background:new 0 0 200 200;" xml:space="preserve">
<style type="text/css">
	.st0{fill:#FFFFFF;}
	.st1{fill:#FF931E;}
	.st2{fill:#F4F4F4;}
	.st3{fill:url(#SVGID_1_);}
	.st4{fill:url(#SVGID_2_);}
	.st5{opacity:0.15;}
	.st6{fill:url(#SVGID_3_);}
	.st7{opacity:0.46;}
	.st8{fill:url(#SVGID_4_);}
	.st9{fill:#02318C;}
	.st10{fill:#043D99;}
	.st11{fill:#03157F;}
</style>
<circle class="st0" cx="100" cy="100.4" r="84.4"/>
<g>
	<g>
		<path class="st1" d="M87.4,30.8c-2.4,0.4-4.8,1-7.1,1.7c-3.6,1-7.1,2.4-10.5,4c-1.1,0.5-0.6,2.1,0.6,1.9c0.2,0,0.4,0,0.5-0.1
			c0,0,0,0,0,0c2.2-0.3,4.5-0.5,6.9-0.5c27.8-0.2,51,22,51.8,49.8c0.7,25.1-16.6,46.4-40,51.7h0c-0.4,0.1-0.8,0.2-1.2,0.3
			c0,0,0,0,0,0c-0.8,0.2-1.7,0.3-2.6,0.4c0,0,0,0,0,0c-0.4,0.1-0.7,0.1-1.1,0.1c-0.1,0-0.1,0-0.2,0c-0.3,0-0.6,0.1-0.8,0.1
			c-0.2,0-0.3,0-0.5,0c-0.3,0-0.6,0-0.9,0.1c-0.1,0-0.3,0-0.4,0c-0.2,0-0.4,0-0.7,0c-0.7,0-1.3,0.1-2,0.1c-0.6,0-1.3,0-1.9,0
			c-0.2,0-0.4,0-0.5,0c-0.5,0-1,0-1.5-0.1c-0.1,0-0.3,0-0.4,0c-0.6,0-1.2-0.1-1.8-0.2c-0.2,0-0.4,0-0.6-0.1c-0.4,0-0.9-0.1-1.3-0.2
			c-0.2,0-0.4-0.1-0.7-0.1c-0.6-0.1-1.1-0.2-1.7-0.3c-0.2,0-0.5-0.1-0.7-0.1c-0.4-0.1-0.7-0.1-1.1-0.2c-0.3-0.1-0.6-0.1-0.9-0.2
			c-0.3-0.1-0.6-0.2-0.9-0.2c-0.5-0.1-1-0.3-1.5-0.4c-0.3-0.1-0.5-0.1-0.8-0.2c-0.3-0.1-0.7-0.2-1-0.3c-0.2-0.1-0.4-0.1-0.6-0.2
			c-1.2-0.4-2.3-0.9-3.4-1.3c-0.1-0.1-0.3-0.1-0.4-0.2c0,0,0,0,0,0c-2-1.3-3.9-2.7-5.7-4.2c-0.9-0.7-1.8-1.5-2.6-2.3
			c-0.3-0.2-0.5-0.5-0.8-0.7c-0.3-0.3-0.6-0.6-0.9-0.9c-0.3-0.3-0.5-0.5-0.8-0.8c-0.3-0.3-0.6-0.6-0.9-0.9c-0.3-0.3-0.5-0.5-0.8-0.8
			c-0.3-0.3-0.6-0.6-0.8-0.9c-0.3-0.3-0.5-0.6-0.8-0.9c-0.3-0.3-0.5-0.6-0.8-0.9c-0.3-0.3-0.5-0.6-0.8-1c-0.2-0.3-0.5-0.6-0.7-0.9
			c-0.3-0.4-0.6-0.8-0.9-1.2c-0.2-0.3-0.4-0.5-0.6-0.8c-0.5-0.6-0.9-1.3-1.3-1.9c-0.2-0.3-0.3-0.5-0.5-0.8c-0.3-0.4-0.5-0.8-0.8-1.3
			c-0.2-0.3-0.3-0.6-0.5-0.9c-0.2-0.4-0.5-0.8-0.7-1.2c-0.2-0.3-0.3-0.6-0.5-0.9c-0.2-0.4-0.4-0.8-0.7-1.3c-0.2-0.3-0.3-0.6-0.5-0.9
			c-0.2-0.4-0.4-0.9-0.6-1.3c-0.1-0.3-0.3-0.6-0.4-0.9c-0.2-0.5-0.4-1-0.7-1.5c-0.1-0.2-0.2-0.5-0.3-0.7c-0.3-0.8-0.6-1.5-0.9-2.3
			c-0.2-0.6-0.8-0.8-1.3-0.6c0,0,0,0-0.1,0c-0.1,0-0.1,0.1-0.2,0.1c-0.3,0.2-0.4,0.5-0.4,0.9c0,0,0,0,0,0c0,0.4,0,0.8,0.1,1.2
			c0,0,0,0,0,0c2.1,37.8,33.8,67.5,72,66.9c4.6-0.1,9.1-0.6,13.4-1.5c0,0,0,0,0,0c0.4-0.1,0.8-0.2,1.2-0.3c0.1,0,0.2-0.1,0.3-0.1
			c0.3-0.1,0.5-0.1,0.8-0.2c0.1,0,0.2-0.1,0.3-0.1c0.3-0.1,0.6-0.1,0.9-0.2c4.2-1.1,8.1-2.6,11.9-4.3c0.5-0.3,1.1-0.5,1.6-0.8
			c11.1-5.5,20.3-13.8,27-23.7c0.3-0.5,0.6-0.9,0.9-1.4c4-6.2,7-13.1,8.9-20.3c0.3-1.1,0.6-2.2,0.8-3.4c0.2-1.1,0.5-2.3,0.6-3.4
			c0.1-0.6,0.2-1.1,0.3-1.7c0.5-4,0.8-8.1,0.6-12.2c0-0.6-0.1-1.2-0.1-1.8c-0.3-4.7-1.1-9.5-2.4-14.2c-2.5-9.3-6.8-17.6-12.3-24.8
			c0,0,0,0,0,0c0,0,0,0,0,0c0,0,0,0.1,0,0.1c-13.2-17.1-34.1-28-57.4-27.6C95,29.8,91.1,30.2,87.4,30.8
			C87.4,30.8,87.4,30.8,87.4,30.8z"/>
		<path class="st2" d="M100.1,29.7c22.8,0,43.1,10.8,56.1,27.6c0,0,0-0.1,0-0.1c0,0,0,0,0,0c0,0,0,0,0,0c5.5,7.2,9.8,15.5,12.3,24.8
			c1.3,4.7,2.1,9.5,2.4,14.2c0,0.6,0.1,1.2,0.1,1.8c0.2,4.1,0,8.2-0.6,12.2c-0.1,0.6-0.2,1.1-0.3,1.7c-0.2,1.1-0.4,2.3-0.6,3.4
			c-0.2,1.1-0.5,2.2-0.8,3.4c-1.9,7.2-4.9,14.1-8.9,20.3c-0.3,0.5-0.6,1-0.9,1.4c-6.7,9.9-15.9,18.2-27,23.7
			c-0.5,0.3-1.1,0.5-1.6,0.8c-3.8,1.8-7.7,3.2-11.9,4.3c-0.3,0.1-0.6,0.1-0.9,0.2c-0.1,0-0.2,0.1-0.3,0.1c-0.3,0.1-0.5,0.1-0.8,0.2
			c-0.1,0-0.2,0.1-0.3,0.1c-0.4,0.1-0.8,0.2-1.2,0.3c0,0,0,0,0,0c-4.3,0.9-8.8,1.5-13.4,1.5c-0.4,0-0.8,0-1.3,0
			c-37.6,0-68.7-29.5-70.8-66.9c0,0,0,0,0,0c0-0.4-0.1-0.8-0.1-1.2c0,0,0,0,0,0c0-0.4,0.2-0.7,0.4-0.9c0.1,0,0.1-0.1,0.2-0.1
			c0,0,0,0,0.1,0c0.1,0,0.2-0.1,0.4-0.1c0.4,0,0.8,0.2,1,0.7c0.3,0.8,0.6,1.5,0.9,2.3c0.1,0.3,0.2,0.5,0.3,0.7
			c0.2,0.5,0.4,1,0.7,1.5c0.1,0.3,0.3,0.6,0.4,0.9c0.2,0.4,0.4,0.9,0.6,1.3c0.2,0.3,0.3,0.6,0.5,0.9c0.2,0.4,0.4,0.8,0.7,1.3
			c0.2,0.3,0.3,0.6,0.5,0.9c0.2,0.4,0.5,0.8,0.7,1.2c0.2,0.3,0.3,0.6,0.5,0.9c0.3,0.4,0.5,0.9,0.8,1.3c0.2,0.3,0.3,0.5,0.5,0.8
			c0.4,0.6,0.9,1.3,1.3,1.9c0.2,0.3,0.4,0.5,0.6,0.8c0.3,0.4,0.6,0.8,0.9,1.2c0.2,0.3,0.5,0.6,0.7,0.9c0.3,0.3,0.5,0.6,0.8,1
			c0.3,0.3,0.5,0.6,0.8,0.9c0.3,0.3,0.5,0.6,0.8,0.9c0.3,0.3,0.6,0.6,0.8,0.9c0.3,0.3,0.5,0.6,0.8,0.8c0.3,0.3,0.6,0.6,0.9,0.9
			c0.3,0.3,0.5,0.5,0.8,0.8c0.3,0.3,0.6,0.6,0.9,0.9c0.3,0.2,0.5,0.5,0.8,0.7c0.9,0.8,1.7,1.6,2.6,2.3c1.8,1.5,3.7,2.9,5.7,4.2
			c0,0,0,0,0,0c0.1,0.1,0.3,0.1,0.4,0.2c1.1,0.5,2.3,0.9,3.4,1.3c0.2,0.1,0.4,0.1,0.6,0.2c0.3,0.1,0.7,0.2,1,0.3
			c0.3,0.1,0.5,0.2,0.8,0.2c0.5,0.1,1,0.3,1.5,0.4c0.3,0.1,0.6,0.2,0.9,0.2c0.3,0.1,0.6,0.1,0.9,0.2c0.4,0.1,0.7,0.2,1.1,0.2
			c0.2,0,0.5,0.1,0.7,0.1c0.6,0.1,1.1,0.2,1.7,0.3c0.2,0,0.4,0.1,0.7,0.1c0.4,0.1,0.9,0.1,1.3,0.2c0.2,0,0.4,0,0.6,0.1
			c0.6,0.1,1.2,0.1,1.8,0.2c0.1,0,0.3,0,0.4,0c0.5,0,1,0.1,1.5,0.1c0.2,0,0.4,0,0.5,0c0.4,0,0.8,0,1.2,0c0.2,0,0.5,0,0.8,0
			c0.7,0,1.3,0,2-0.1c0.2,0,0.4,0,0.7,0c0.1,0,0.3,0,0.4,0c0.3,0,0.6,0,0.9-0.1c0.2,0,0.3,0,0.5,0c0.3,0,0.6-0.1,0.8-0.1
			c0.1,0,0.1,0,0.2,0c0.4,0,0.7-0.1,1.1-0.1c0,0,0,0,0,0c0.9-0.1,1.7-0.3,2.6-0.4c0,0,0,0,0,0c0.4-0.1,0.8-0.2,1.2-0.3h0
			c23.5-5.3,40.8-26.6,40-51.7c-0.8-27.7-23.7-49.8-51.4-49.8c-0.1,0-0.3,0-0.4,0c-2.3,0-4.6,0.2-6.9,0.5c0,0,0,0,0,0
			c-0.2,0-0.4,0-0.5,0.1c-0.1,0-0.1,0-0.2,0c-1,0-1.4-1.5-0.4-2c3.3-1.6,6.8-2.9,10.5-4c2.3-0.7,4.7-1.2,7.1-1.7c0,0,0,0,0,0
			c3.7-0.7,7.5-1,11.4-1.1C99.3,29.7,99.7,29.7,100.1,29.7 M100.1,28.3c-0.4,0-0.9,0-1.3,0c-3.9,0.1-7.8,0.5-11.6,1.1c0,0,0,0,0,0
			c-2.4,0.4-4.8,1-7.2,1.7c-3.6,1.1-7.2,2.4-10.7,4c-1,0.5-1.6,1.6-1.3,2.7c0.2,1.1,1.2,1.9,2.3,1.9c0.1,0,0.3,0,0.4,0
			c0.1,0,0.2,0,0.3,0c0.1,0,0.2,0,0.3,0c2.2-0.3,4.5-0.5,6.7-0.5c0.1,0,0.3,0,0.4,0c26.8,0,49.2,21.8,50,48.5
			c0.7,23.9-15.7,45.1-39,50.3c-0.4,0.1-0.8,0.2-1.2,0.3c0,0,0,0,0,0c-0.8,0.2-1.7,0.3-2.5,0.4c0,0,0,0,0,0c-0.3,0-0.6,0.1-1.1,0.1
			l-0.1,0l-0.1,0c-0.2,0-0.4,0-0.7,0.1l-0.2,0l-0.2,0c-0.1,0-0.2,0-0.2,0c-0.2,0-0.5,0-0.7,0.1l-0.1,0c-0.1,0-0.1,0-0.2,0
			c-0.1,0-0.2,0-0.2,0c-0.1,0-0.3,0-0.4,0l-0.2,0c-0.7,0-1.4,0.1-1.9,0.1c-0.2,0-0.5,0-0.7,0c-0.4,0-0.7,0-1.2,0c-0.2,0-0.4,0-0.5,0
			c-0.5,0-1,0-1.5-0.1l-0.2,0c-0.1,0-0.1,0-0.2,0c-0.6,0-1.1-0.1-1.8-0.2c-0.1,0-0.3,0-0.4,0l-0.2,0c-0.4,0-0.8-0.1-1.3-0.2l-0.2,0
			c-0.2,0-0.3,0-0.5-0.1c-0.6-0.1-1.1-0.2-1.6-0.3c-0.1,0-0.3-0.1-0.4-0.1l-0.2,0c-0.3-0.1-0.7-0.1-1-0.2c-0.3-0.1-0.6-0.1-0.8-0.2
			c-0.3-0.1-0.6-0.2-0.9-0.2c-0.5-0.1-1-0.3-1.4-0.4l-0.1,0c-0.2-0.1-0.4-0.1-0.6-0.2c-0.3-0.1-0.7-0.2-1-0.3
			c-0.2-0.1-0.4-0.1-0.6-0.2c-1.1-0.4-2.3-0.8-3.3-1.3c-0.1,0-0.2-0.1-0.3-0.1c-1.9-1.3-3.8-2.6-5.5-4c-0.8-0.7-1.7-1.4-2.6-2.2
			l-0.2-0.2c-0.2-0.2-0.3-0.3-0.5-0.5c-0.3-0.2-0.5-0.5-0.8-0.7l-0.2-0.1l-0.1-0.1c-0.2-0.2-0.4-0.4-0.7-0.7
			c-0.3-0.3-0.6-0.6-0.9-0.9c-0.3-0.3-0.5-0.5-0.8-0.8c-0.3-0.3-0.6-0.6-0.8-0.9c-0.3-0.3-0.5-0.6-0.8-0.9c-0.3-0.3-0.5-0.6-0.8-0.9
			c-0.2-0.3-0.5-0.6-0.7-0.9l0,0l-0.2-0.2c-0.2-0.2-0.4-0.4-0.5-0.7c-0.3-0.3-0.5-0.7-0.8-1.1l-0.1-0.1c-0.1-0.1-0.1-0.2-0.2-0.3
			c-0.1-0.1-0.2-0.3-0.3-0.4c-0.4-0.6-0.9-1.2-1.3-1.9c-0.1-0.2-0.2-0.3-0.3-0.5c-0.1-0.1-0.1-0.2-0.2-0.3c-0.3-0.4-0.5-0.8-0.8-1.2
			c-0.1-0.2-0.3-0.4-0.4-0.6l-0.1-0.2c-0.2-0.4-0.5-0.8-0.7-1.2c-0.2-0.3-0.3-0.6-0.5-0.9c-0.2-0.4-0.4-0.8-0.7-1.2
			c-0.2-0.3-0.3-0.6-0.4-0.9c-0.2-0.4-0.4-0.8-0.6-1.3l-0.1-0.2c-0.1-0.2-0.2-0.4-0.3-0.7c-0.2-0.5-0.4-1-0.6-1.5
			c0-0.1-0.1-0.2-0.1-0.3c-0.1-0.1-0.1-0.3-0.2-0.4c-0.3-0.8-0.6-1.5-0.9-2.2c-0.3-1-1.2-1.6-2.3-1.6c-0.3,0-0.5,0-0.8,0.1
			c0,0-0.1,0-0.1,0.1c-0.2,0.1-0.3,0.1-0.5,0.2c-0.7,0.5-1.1,1.2-1,2.1c0,0,0,0,0,0c0,0.3,0,0.7,0.1,1l0,0c0,0.1,0,0.1,0,0.2
			c2.2,38.2,33.9,68.2,72.1,68.2c0.4,0,0.9,0,1.3,0c4.6-0.1,9.2-0.6,13.7-1.6l0,0c0,0,0,0,0,0c0.4-0.1,0.8-0.2,1.2-0.3l0.1,0
			l0.3-0.1c0.2,0,0.4-0.1,0.6-0.1l0.2,0l0.1,0l0.2-0.1l0.3-0.1c0.2,0,0.4-0.1,0.6-0.1c4.2-1.1,8.3-2.6,12.1-4.4
			c0.5-0.3,1.1-0.5,1.6-0.8c11.1-5.5,20.6-13.9,27.6-24.2c0.3-0.5,0.6-1,1-1.5c4.1-6.4,7.2-13.3,9.1-20.7c0.3-1.1,0.6-2.3,0.8-3.4
			c0.2-1.1,0.5-2.3,0.6-3.5c0.1-0.6,0.2-1.2,0.3-1.7c0.6-4.1,0.8-8.3,0.6-12.5c0-0.6-0.1-1.2-0.1-1.8c-0.3-4.9-1.1-9.7-2.4-14.5
			c-2.5-9.2-6.8-17.7-12.6-25.3c-0.1-0.1-0.2-0.2-0.2-0.2c-6.6-8.4-15.1-15.3-24.6-20.1C122.4,30.9,111.5,28.3,100.1,28.3
			L100.1,28.3z"/>
	</g>
	<g>
		<g>
			
				<linearGradient id="SVGID_1_" gradientUnits="userSpaceOnUse" x1="235.0116" y1="34.1496" x2="360.7001" y2="34.1496" gradientTransform="matrix(-0.9487 -0.3162 0.3162 -0.9487 364.4068 220.8528)">
				<stop  offset="0" style="stop-color:#03218E"/>
				<stop  offset="1" style="stop-color:#0097FF"/>
			</linearGradient>
			<path class="st3" d="M31.9,100.7c0.4-2.1,1-4.3,1.7-6.4C41.6,71,67,58.3,90.5,65.8c24.2,7.7,37.4,33.7,29.3,57.8
				c-6.5,19.6-25.1,31.8-44.7,31.1c32.2,9.4,66.4-8.4,77.1-40.5c11-32.9-7.4-69.1-40.4-79.7C79.1,24,43.9,41.7,33,74.4
				c-2.9,8.7-3.8,17.6-2.9,26.2C30.2,101.7,31.7,101.7,31.9,100.7z"/>
			<path class="st2" d="M92.7,157.9c-5.9,0-11.9-0.8-17.7-2.5l-5.3-1.5l5.5,0.2c19.7,0.7,37.8-11.9,44-30.7
				c3.8-11.5,2.9-23.7-2.6-34.5c-5.5-10.8-14.8-18.7-26.3-22.4C67.2,59,42.1,71.7,34.2,94.6c-0.7,2-1.3,4.2-1.7,6.3
				c-0.2,0.8-0.8,1.3-1.6,1.3c-0.8,0-1.4-0.6-1.5-1.4c-0.9-9,0.1-17.9,2.9-26.5c5.3-16,16.5-29,31.6-36.6c15-7.6,32.1-9,48.1-3.8
				c16.1,5.2,29.3,16.5,37.1,31.8c7.8,15.4,9.1,32.7,3.8,48.7c-5.2,15.7-16.2,28.5-30.8,36.2C112.9,155.4,102.8,157.9,92.7,157.9z
				 M80.3,155.2c30.6,6.3,61.3-11.1,71.3-41.3c5.2-15.7,3.9-32.7-3.7-47.7c-7.6-15-20.5-26.1-36.3-31.2
				c-32.3-10.3-67.2,7.4-77.9,39.5c-2.8,8.4-3.8,17.1-2.9,25.9c0,0,0,0.2,0.2,0.2c0.1,0,0.2-0.1,0.2-0.2l0,0c0.4-2.2,1-4.4,1.7-6.5
				c3.9-11.4,12.1-20.8,23-26.2c10.9-5.5,23.3-6.5,34.8-2.8c11.9,3.8,21.5,12,27.1,23.1c5.6,11.1,6.6,23.7,2.6,35.5
				c-3.2,9.6-9.3,17.8-17.7,23.5C96.1,151.8,88.3,154.6,80.3,155.2z"/>
		</g>
		
			<linearGradient id="SVGID_2_" gradientUnits="userSpaceOnUse" x1="656.8388" y1="228.8244" x2="798.6763" y2="228.8244" gradientTransform="matrix(-1.757938e-02 -0.9998 0.9998 -1.757938e-02 -115.8733 832.2856)">
			<stop  offset="0" style="stop-color:#03218E"/>
			<stop  offset="1" style="stop-color:#0097FF"/>
		</linearGradient>
		<path class="st4" d="M70.5,38.4c2.4-0.4,4.9-0.6,7.4-0.6c27.8-0.2,51,22,51.8,49.8c0.9,28.7-21.9,52.4-50.5,52.9
			C55.9,141,36,125.8,29.3,104.7c2.1,37.8,33.8,67.5,72,66.9c39.1-0.7,70.8-33.9,69.6-73c-1.1-38.8-33.2-69.5-72.1-68.8
			c-10.4,0.2-20.2,2.6-29,6.7C68.8,37,69.3,38.6,70.5,38.4z"/>
		<g class="st5">
			<path d="M104.1,140.7c-5,0.1-9.8-0.4-14.5-1.4c-3.4,0.8-6.8,1.2-10.4,1.2c-8.2,0.1-15.9-1.6-22.8-4.9
				c10.9,7.6,24.2,11.9,38.4,11.7c15.8-0.3,30.1-6.1,41.2-15.6C126.6,137.2,115.8,140.5,104.1,140.7z"/>
			<path class="st2" d="M93.6,148c-13.5,0-26.5-4.1-37.6-11.8l0.7-1.2c7.1,3.3,14.7,5,22.5,4.8c3.5-0.1,6.9-0.5,10.3-1.2l0.1,0
				l0.1,0c4.7,1,9.5,1.4,14.3,1.3l0,0c11.1-0.2,22-3.3,31.6-8.9l0.8,1.1c-11.6,9.9-26.4,15.5-41.7,15.7C94.4,148,94,148,93.6,148z
				 M63.2,139c9.7,5.2,20.4,7.8,31.6,7.6c12.3-0.2,24.3-4,34.6-10.7c-7.9,3.4-16.5,5.3-25.2,5.5l0,0c-4.8,0.1-9.7-0.4-14.5-1.3
				c-3.4,0.8-6.9,1.2-10.4,1.2C73.7,141.3,68.3,140.6,63.2,139z"/>
		</g>
		<circle class="st0" cx="80.6" cy="106.9" r="42.7"/>
		<g>
			
				<linearGradient id="SVGID_3_" gradientUnits="userSpaceOnUse" x1="635.2756" y1="189.0005" x2="737.6628" y2="237.6313" gradientTransform="matrix(-1.757938e-02 -0.9998 0.9998 -1.757938e-02 -115.8733 832.2856)">
				<stop  offset="0" style="stop-color:#FFB70F"/>
				<stop  offset="0.8329" style="stop-color:#FF8500"/>
			</linearGradient>
			<path class="st6" d="M160.4,80.8c-0.2,35.6-28.8,65-64.4,66.2c-29.6,0.9-55.2-17.6-64.7-43.9c-0.4-1.1-2-0.8-2,0.4
				c0.2,5.1,1,10.2,2.3,15.3c10,37.7,49,60.4,86.8,50.4c38.1-10.1,60.6-49.3,50.2-87.2c-2.5-9.3-6.8-17.6-12.3-24.8
				C158.9,64.5,160.4,72.5,160.4,80.8z"/>
			<path class="st2" d="M100.1,172.2c-12.5,0-24.8-3.3-35.9-9.8c-16.6-9.6-28.4-25.1-33.3-43.5c-1.3-5.1-2.1-10.2-2.3-15.4
				c0-0.9,0.5-1.6,1.4-1.7c0.9-0.2,1.7,0.3,2,1.1c9.7,26.9,35.5,44.3,64.1,43.4c35-1.1,63.6-30.5,63.7-65.5l0,0
				c0-8-1.4-15.9-4.1-23.4l-1.6-4.2l2.8,3.6c5.8,7.5,10,15.9,12.5,25c5.1,18.5,2.6,37.9-7,54.6c-9.6,16.6-25.1,28.5-43.7,33.5
				C112.4,171.4,106.3,172.2,100.1,172.2z M30.3,103.1C30.3,103.1,30.2,103.1,30.3,103.1c-0.2,0-0.4,0.1-0.4,0.4
				c0.2,5.1,1,10.2,2.3,15.1c4.8,18.1,16.4,33.2,32.7,42.7c16.3,9.5,35.2,12,53.3,7.2c18.2-4.8,33.4-16.5,42.8-32.8
				c9.4-16.3,11.9-35.3,6.9-53.5c-2.1-7.5-5.3-14.5-9.6-20.9c1.9,6.3,2.8,12.9,2.8,19.6c-0.1,17.4-6.9,33.9-19.1,46.5
				c-12.2,12.6-28.6,19.8-46,20.3c-14.5,0.5-28.4-3.6-40.3-11.8c-11.6-8-20.3-19.3-25.1-32.5C30.5,103.1,30.4,103.1,30.3,103.1z"/>
		</g>
		<g class="st7">
			<g>
				
					<linearGradient id="SVGID_4_" gradientUnits="userSpaceOnUse" x1="627.0549" y1="335.1441" x2="730.7742" y2="335.1441" gradientTransform="matrix(-0.1773 -0.9842 0.9842 -0.1773 -97.4499 845.3765)">
					<stop  offset="0" style="stop-color:#FFFFFF"/>
					<stop  offset="1" style="stop-color:#FF8500"/>
				</linearGradient>
				<path class="st8" d="M160.4,80.8c0,3-0.2,6-0.6,8.9c1.7,32.7-19.6,63.3-52.6,72.1c-17.9,4.8-36.2,2.1-51.5-6
					c17,13.7,40.1,19.4,62.7,13.4c38.1-10.1,60.6-49.3,50.2-87.2c-2.5-9.3-6.8-17.6-12.3-24.8C158.9,64.5,160.4,72.5,160.4,80.8z"/>
				<path class="st2" d="M100.2,172.2c-5.2,0-10.4-0.6-15.5-1.7c-10.7-2.4-20.9-7.3-29.5-14.2l0.8-1.1c15.7,8.4,33.8,10.5,51,5.9
					c31.9-8.5,53.8-38.5,52.1-71.4l0-0.1l0-0.1c0.4-2.9,0.6-5.9,0.6-8.8l0,0c0-8-1.4-15.9-4.1-23.4l-1.6-4.2l2.8,3.6
					c5.8,7.5,10,15.9,12.5,25c5.1,18.5,2.6,37.9-7,54.6c-9.6,16.6-25.1,28.5-43.7,33.5C112.5,171.4,106.4,172.2,100.2,172.2z
					 M62,159.5c16.6,10.7,37.1,14.1,56.1,9c18.2-4.8,33.4-16.5,42.8-32.8c9.4-16.3,11.9-35.3,6.9-53.5c-2.1-7.5-5.3-14.5-9.6-20.9
					c1.9,6.3,2.8,12.9,2.8,19.6c0,2.9-0.2,5.9-0.6,8.9c0.8,16.1-4,32.2-13.4,45.4c-9.6,13.4-23.7,23.1-39.7,27.3
					C92.2,166.4,76.4,165.3,62,159.5z"/>
			</g>
		</g>
	</g>
</g>
<circle class="st0" cx="40.4" cy="101.3" r="20.6"/>
<g>
	<g>
		<path class="st9" d="M74.2,105.9c-1.1,1.4-2.2,2.8-3.3,4.1c-0.3,0.3-0.2,0.7-0.2,1c0,2.3,0,4.6,0,6.8c0,1.1-0.2,1.3-1.3,1.3
			c-2.2,0-4.3,0-6.5,0c-0.9,0-1.2-0.4-1.2-1.2c0-11.2,0-22.4,0-33.6c0-0.9,0.3-1.3,1.2-1.2c2.2,0,4.3,0,6.5,0c0.9,0,1.2,0.4,1.2,1.3
			c0,4.3,0,8.7,0,13c0,0.1,0,0.2,0,0.6c1-1.4,1.9-2.6,2.7-3.8c2.4-3.3,4.8-6.7,7.2-10c0.5-0.8,1.1-1.1,2.1-1.1c2.6,0.1,5.3,0,7.9,0
			c0.3,0,0.7-0.1,0.9,0.2c0.2,0.4-0.1,0.7-0.3,0.9c-3.7,4.7-7.4,9.3-11.1,14c-0.4,0.5-0.4,0.8,0,1.3c4.2,6.1,8.3,12.2,12.5,18.3
			c0.2,0.3,0.6,0.6,0.4,1c-0.2,0.5-0.7,0.3-1.1,0.3c-2.4,0-4.9,0-7.3,0c-1,0-1.6-0.4-2.1-1.2c-2.6-4-5.3-7.9-8-11.8
			C74.4,106.1,74.3,106.1,74.2,105.9z"/>
		<path class="st9" d="M39.7,82.7c-10.4,0-18.6,8.2-18.6,18.6c0,10.3,8.2,18.5,18.5,18.5c10.3,0,18.6-8.2,18.6-18.5
			C58.2,91,50,82.7,39.7,82.7z M39.6,111c-5.4,0-9.5-4.2-9.5-9.8c0-5.6,4.1-9.7,9.5-9.7c5.4,0,9.5,4.2,9.5,9.7
			C49.1,106.8,45,111,39.6,111z"/>
		<g>
			<path class="st9" d="M32.6,108c-1.6-1.7-2.5-4.1-2.5-6.7c0-5.6,4.1-9.7,9.5-9.7c0.9,0,1.7,0.1,2.5,0.3c-1.7-1.9-4.2-3-7-3
				c-5.4,0-9.5,4.1-9.5,9.7C25.5,103.2,28.4,106.9,32.6,108z"/>
			<path class="st10" d="M46.8,84.2c4.2,3.4,6.8,8.6,6.8,14.4c0,10.3-8.2,18.5-18.6,18.5c-2.6,0-5-0.5-7.2-1.4
				c3.2,2.6,7.3,4.2,11.8,4.2c10.3,0,18.6-8.2,18.6-18.5C58.2,93.5,53.5,86.9,46.8,84.2z"/>
		</g>
		<g>
			<path class="st11" d="M42.9,116.5c-10.3,0-18.6-8.2-18.5-18.5c0-4.3,1.4-8.2,3.8-11.3c-4.3,3.4-7.1,8.7-7.1,14.7
				c0,10.3,8.2,18.5,18.5,18.5c6.1,0,11.4-2.8,14.8-7.2C51.2,115,47.2,116.5,42.9,116.5z"/>
		</g>
	</g>
</g>
<g>
	<g>
		<path class="st9" d="M94.4,81.3c-0.6,0-1.3,0-1.9,0c-0.4,0-0.4-0.1-0.4-0.4c0-0.5,0-1,0-1.6c0-0.3,0.1-0.4,0.4-0.4
			c1.4,0,2.9,0,4.3,0c0.3,0,0.4,0.1,0.4,0.4c0,3.7,0,7.4,0,11.1c0,0.3-0.1,0.4-0.4,0.4c-0.7,0-1.3,0-2,0c-0.4,0-0.5-0.1-0.5-0.5
			c0-2.9,0-5.7,0-8.6C94.4,81.6,94.4,81.5,94.4,81.3z"/>
	</g>
	<g>
		<path class="st9" d="M108.1,81.4c-0.7-1.7-2.1-2.6-4-2.7c-1.9-0.1-3.4,0.7-4.3,2.4c-0.6,1.1-0.8,2.4-0.8,3.7
			c0,1.2,0.1,2.3,0.7,3.4c0.8,1.7,2.1,2.6,4,2.7c1.9,0.1,3.5-0.7,4.3-2.4C109.1,86.2,109.1,83.8,108.1,81.4z M105.8,86.6
			c0,0.1-0.1,0.3-0.1,0.4c-0.3,0.8-0.9,1.3-1.7,1.3c-0.9,0-1.5-0.4-1.9-1.2c-0.6-1.5-0.6-3.1,0-4.6c0.3-0.8,0.9-1.2,1.8-1.2
			c0.8,0,1.4,0.4,1.7,1.2c0,0,0,0.1,0.1,0.1c0.3,0.6,0.4,1.3,0.4,2.2C106,85.5,106,86.1,105.8,86.6z"/>
	</g>
</g>
</svg>
